<svg xmlns="http://www.w3.org/2000/svg" fill="none" version="1.1" width="28" height="28" viewBox="0 0 28 28"><defs><linearGradient x1="0" y1="0.39280906319618225" x2="0.9673641920089722" y2="0.750818192958831" id="qc-grad"><stop offset="3.69%" stop-color="#B266FF"/><stop offset="55.52%" stop-color="#C62AFB"/><stop offset="99.29%" stop-color="#7A5EF4"/></linearGradient><clipPath id="qc-clip"><rect x="0" y="0" width="28" height="28" rx="9.6"/></clipPath></defs><g clip-path="url(#qc-clip)"><rect x="0" y="0" width="28" height="28" rx="9.6" fill="url(#qc-grad)"/><path d="M23.32 15.50L20.63 13.94C20.70 13.83 20.73 13.70 20.73 13.56L20.73 12.73C20.73 12.45 20.59 12.20 20.35 12.06L19.63 11.65C19.39 11.51 19.10 11.51 18.86 11.65L16.66 12.92C16.42 13.06 16.27 13.31 16.27 13.58L16.27 14.42C16.27 14.69 16.42 14.94 16.66 15.08L21.83 18.07C22.07 18.21 22.36 18.21 22.60 18.07L23.32 17.65C23.56 17.52 23.70 17.26 23.70 16.99L23.70 16.16C23.70 15.88 23.56 15.63 23.32 15.49Z" fill="#FFFFFF"/><path d="M19.95 6.68L17.26 8.23C17.20 8.12 17.10 8.02 16.98 7.95L16.26 7.53C16.03 7.40 15.73 7.40 15.50 7.53L14.78 7.95C14.54 8.09 14.39 8.34 14.39 8.61L14.39 11.16C14.39 11.44 14.54 11.69 14.78 11.83L15.50 12.24C15.73 12.38 16.03 12.38 16.26 12.24L21.44 9.25C21.68 9.12 21.82 8.86 21.82 8.59L21.82 7.76C21.82 7.48 21.68 7.23 21.44 7.09L20.72 6.68C20.48 6.54 20.19 6.54 19.95 6.68Z" fill="#FFFFFF"/><path d="M10.63 5.18L10.63 8.29C10.50 8.29 10.37 8.32 10.25 8.39L9.53 8.81C9.29 8.95 9.15 9.20 9.15 9.47L9.15 10.30C9.15 10.58 9.29 10.83 9.53 10.97L11.74 12.24C11.97 12.38 12.26 12.38 12.50 12.24L13.22 11.82C13.46 11.69 13.61 11.43 13.61 11.16L13.61 5.18C13.61 4.91 13.46 4.66 13.22 4.52L12.50 4.10C12.26 3.97 11.97 3.97 11.74 4.10L11.02 4.52C10.78 4.66 10.63 4.91 10.63 5.18Z" fill="#FFFFFF"/><path d="M4.68 12.51L7.37 14.06C7.30 14.18 7.27 14.31 7.27 14.44L7.27 15.27C7.27 15.55 7.41 15.80 7.65 15.94L8.37 16.35C8.61 16.49 8.90 16.49 9.14 16.35L11.34 15.08C11.58 14.94 11.73 14.69 11.73 14.42L11.73 13.59C11.73 13.31 11.58 13.06 11.34 12.92L6.17 9.93C5.93 9.80 5.64 9.80 5.40 9.93L4.68 10.35C4.44 10.49 4.30 10.74 4.30 11.01L4.30 11.84C4.30 12.12 4.44 12.37 4.68 12.51Z" fill="#FFFFFF"/><path d="M8.05 21.32L10.74 19.77C10.80 19.89 10.90 19.98 11.02 20.05L11.74 20.47C11.97 20.60 12.27 20.60 12.50 20.47L13.22 20.05C13.46 19.91 13.61 19.66 13.61 19.39L13.61 16.84C13.61 16.57 13.46 16.31 13.22 16.18L12.50 15.76C12.27 15.62 11.97 15.62 11.74 15.76L6.56 18.75C6.32 18.89 6.18 19.14 6.18 19.41L6.18 20.24C6.18 20.52 6.32 20.77 6.56 20.91L7.28 21.32C7.52 21.46 7.81 21.46 8.05 21.32Z" fill="#FFFFFF"/><path d="M17.37 22.82L17.37 19.71C17.50 19.71 17.63 19.68 17.75 19.61L18.47 19.19C18.71 19.06 18.85 18.80 18.85 18.53L18.85 17.70C18.85 17.43 18.71 17.17 18.47 17.04L16.26 15.76C16.03 15.62 15.73 15.62 15.50 15.76L14.78 16.18C14.54 16.31 14.39 16.57 14.39 16.84L14.39 22.82C14.39 23.09 14.54 23.35 14.78 23.48L15.50 23.90C15.73 24.04 16.03 24.04 16.26 23.90L16.98 23.48C17.22 23.35 17.37 23.09 17.37 22.82Z" fill="#FFFFFF"/></g></svg>
